<svg xmlns="http://www.w3.org/2000/svg" xml:space="preserve" viewBox="0 0 512 512">
  <path fill="#b3404a" d="m374 506-9-2L7 269a15 15 0 0 1 0-26L365 8a15 15 0 1 1 17 26L43 256l339 222a15 15 0 0 1-8 28z"/>
  <path fill="#b3404a" d="m497 506-9-2-358-235a15 15 0 0 1 0-26L488 8a15 15 0 1 1 17 26L166 256l315 206V135a15 15 0 0 1 31 0v356a15 15 0 0 1-15 15z"/>
  <path fill="#b3404a" d="m432 392-9-3-169-120a15 15 0 0 1 0-26l169-120a15 15 0 0 1 25 12v242a15 15 0 0 1-16 15zM289 256l128 91V165l-128 91z"/>
</svg>